<?xml version="1.0" encoding="utf-8"?>
<!-- Generator: Adobe Illustrator 27.3.1, SVG Export Plug-In . SVG Version: 6.00 Build 0)  -->
<svg version="1.1" id="_Слой_1" xmlns="http://www.w3.org/2000/svg" xmlns:xlink="http://www.w3.org/1999/xlink" x="0px"
	 y="0px" viewBox="0 0 58 56" style="enable-background:new 0 0 58 56;" xml:space="preserve">
<style type="text/css">
	.st0{fill:#FFFFFF;}
	.st1{fill:#4A4A4A;}
</style>
<g>
	<rect x="0.5" y="0.5" class="st0" width="57" height="5"/>
	<path class="st1" d="M57,1v4H1V1H57 M58,0H0v6h58V0L58,0z"/>
</g>
<g>
	<rect x="0.5" y="7.2" class="st0" width="27" height="22.5"/>
	<path class="st1" d="M27,7.5v22H1v-22H27 M28,7H0v22.9h28V7L28,7z"/>
</g>
<g>
	<rect x="29.5" y="7.2" class="st0" width="28" height="22.5"/>
	<path class="st1" d="M57,7.5v22H30v-22H57 M58,7H29v22.9h29V7L58,7z"/>
</g>
<g>
	<rect x="1" y="31.2" class="st0" width="55.9" height="24.6"/>
	<path class="st1" d="M55.9,31.4v24H2.1v-24H55.9 M58,30.9H0V56h58V30.9L58,30.9z"/>
</g>
</svg>
